<?xml version="1.0" encoding="UTF-8" standalone="no"?><!-- Generator: Gravit.io --><svg xmlns="http://www.w3.org/2000/svg" xmlns:xlink="http://www.w3.org/1999/xlink" style="isolation:isolate" viewBox="0 0 24 24" width="24pt" height="24pt"><defs><clipPath id="_clipPath_Pd4Qv1VDnc44UDEaoQ5q5909uzpWTUzv"><rect width="24" height="24"/></clipPath></defs><g clip-path="url(#_clipPath_Pd4Qv1VDnc44UDEaoQ5q5909uzpWTUzv)"><path d=" M 15.25 0 C 13.66 -0.001 12.105 0.458 10.769 1.32 C 9.434 2.183 8.377 3.412 7.724 4.862 C 7.071 6.311 6.851 7.918 7.09 9.49 C 7.328 11.061 8.016 12.53 9.07 13.72 L 1 22.88 L 2.12 23.88 L 10.17 14.76 C 11.205 15.569 12.419 16.12 13.71 16.365 C 15.001 16.61 16.333 16.544 17.593 16.171 C 18.853 15.798 20.006 15.129 20.955 14.22 C 21.904 13.311 22.623 12.189 23.051 10.946 C 23.479 9.704 23.604 8.377 23.415 7.076 C 23.227 5.776 22.73 4.539 21.967 3.469 C 21.204 2.399 20.196 1.527 19.028 0.925 C 17.86 0.324 16.564 0.01 15.25 0.01 L 15.25 0 Z  M 15.25 15 C 13.915 15 12.61 14.604 11.5 13.862 C 10.39 13.121 9.525 12.066 9.014 10.833 C 8.503 9.6 8.369 8.242 8.63 6.933 C 8.89 5.624 9.533 4.421 10.477 3.477 C 11.421 2.533 12.624 1.89 13.933 1.63 C 15.243 1.369 16.6 1.503 17.833 2.014 C 19.066 2.525 20.121 3.39 20.862 4.5 C 21.604 5.61 22 6.915 22 8.25 C 22 10.04 21.289 11.757 20.023 13.023 C 18.757 14.289 17.04 15 15.25 15 L 15.25 15 Z " fill="rgb(255,255,255)"/><path d=" M 12.02 8.933 L 11.272 6.251 L 10.524 8.933 L 12.02 8.933 Z  M 9.239 10.867 L 10.844 5.626 L 11.704 5.626 L 13.308 10.867 L 12.574 10.867 L 12.188 9.501 L 10.352 9.501 L 9.973 10.867 L 9.239 10.867 Z  M 16.656 5.805 L 16.656 5.805 L 16.656 6.525 L 16.656 6.525 Q 16.333 6.318 16.008 6.212 L 16.008 6.212 L 16.008 6.212 Q 15.684 6.107 15.354 6.107 L 15.354 6.107 L 15.354 6.107 Q 14.852 6.107 14.56 6.34 L 14.56 6.34 L 14.56 6.34 Q 14.269 6.574 14.269 6.97 L 14.269 6.97 L 14.269 6.97 Q 14.269 7.318 14.46 7.501 L 14.46 7.501 L 14.46 7.501 Q 14.651 7.683 15.175 7.806 L 15.175 7.806 L 15.547 7.89 L 15.547 7.89 Q 16.284 8.062 16.621 8.431 L 16.621 8.431 L 16.621 8.431 Q 16.958 8.799 16.958 9.435 L 16.958 9.435 L 16.958 9.435 Q 16.958 10.182 16.494 10.576 L 16.494 10.576 L 16.494 10.576 Q 16.031 10.969 15.146 10.969 L 15.146 10.969 L 15.146 10.969 Q 14.778 10.969 14.406 10.89 L 14.406 10.89 L 14.406 10.89 Q 14.034 10.811 13.658 10.653 L 13.658 10.653 L 13.658 9.898 L 13.658 9.898 Q 14.062 10.154 14.422 10.274 L 14.422 10.274 L 14.422 10.274 Q 14.781 10.393 15.146 10.393 L 15.146 10.393 L 15.146 10.393 Q 15.684 10.393 15.982 10.153 L 15.982 10.153 L 15.982 10.153 Q 16.28 9.912 16.28 9.48 L 16.28 9.48 L 16.28 9.48 Q 16.28 9.087 16.075 8.88 L 16.075 8.88 L 16.075 8.88 Q 15.87 8.673 15.361 8.561 L 15.361 8.561 L 14.981 8.473 L 14.981 8.473 Q 14.251 8.308 13.921 7.974 L 13.921 7.974 L 13.921 7.974 Q 13.591 7.641 13.591 7.079 L 13.591 7.079 L 13.591 7.079 Q 13.591 6.377 14.064 5.954 L 14.064 5.954 L 14.064 5.954 Q 14.536 5.531 15.318 5.531 L 15.318 5.531 L 15.318 5.531 Q 15.62 5.531 15.954 5.6 L 15.954 5.6 L 15.954 5.6 Q 16.287 5.668 16.656 5.805 Z  M 17.262 6.223 L 17.262 5.626 L 21.261 5.626 L 21.261 6.223 L 19.621 6.223 L 19.621 10.867 L 18.909 10.867 L 18.909 6.223 L 17.262 6.223 Z " fill="rgb(255,255,255)"/></g></svg>