<?xml version="1.0" encoding="UTF-8" standalone="no"?><!-- Generator: Gravit.io --><svg xmlns="http://www.w3.org/2000/svg" xmlns:xlink="http://www.w3.org/1999/xlink" style="isolation:isolate" viewBox="0 0 24 24" width="24pt" height="24pt"><defs><clipPath id="_clipPath_YnCtRmwZZXiuUy6fQ2Z3y0qUHGhbL5J5"><rect width="24" height="24"/></clipPath></defs><g clip-path="url(#_clipPath_YnCtRmwZZXiuUy6fQ2Z3y0qUHGhbL5J5)"><path d=" M 15.25 0 C 13.661 -0.001 12.105 0.458 10.769 1.32 C 9.434 2.183 8.377 3.412 7.724 4.862 C 7.071 6.311 6.851 7.918 7.09 9.49 C 7.328 11.061 8.016 12.53 9.07 13.72 L 1 22.88 L 2.12 23.88 L 10.17 14.76 C 11.206 15.569 12.419 16.12 13.71 16.365 C 15.001 16.61 16.333 16.544 17.593 16.171 C 18.853 15.798 20.006 15.129 20.955 14.22 C 21.904 13.311 22.623 12.189 23.051 10.947 C 23.479 9.704 23.604 8.377 23.415 7.076 C 23.227 5.776 22.73 4.539 21.967 3.469 C 21.204 2.399 20.196 1.527 19.028 0.925 C 17.86 0.324 16.564 0.01 15.25 0.01 L 15.25 0 L 15.25 0 Z  M 15.25 15 C 13.915 15 12.61 14.604 11.5 13.862 C 10.39 13.121 9.525 12.067 9.014 10.833 C 8.503 9.6 8.369 8.242 8.63 6.933 C 8.89 5.624 9.533 4.421 10.477 3.477 C 11.421 2.533 12.624 1.89 13.933 1.63 C 15.243 1.369 16.6 1.503 17.833 2.014 C 19.067 2.525 20.121 3.39 20.862 4.5 C 21.604 5.61 22 6.915 22 8.25 C 22 10.04 21.289 11.757 20.023 13.023 C 18.757 14.289 17.04 15 15.25 15 L 15.25 15 L 15.25 15 Z " fill="rgb(255,255,255)"/><path d=" M 11.719 21.718 L 10.901 18.787 L 10.084 21.718 L 11.719 21.718 Z  M 8.679 23.833 L 10.433 18.104 L 11.373 18.104 L 13.127 23.833 L 12.325 23.833 L 11.903 22.34 L 9.896 22.34 L 9.481 23.833 L 8.679 23.833 Z  M 16.787 18.299 L 16.787 18.299 L 16.787 19.086 L 16.787 19.086 Q 16.434 18.86 16.079 18.744 L 16.079 18.744 L 16.079 18.744 Q 15.724 18.629 15.363 18.629 L 15.363 18.629 L 15.363 18.629 Q 14.814 18.629 14.496 18.884 L 14.496 18.884 L 14.496 18.884 Q 14.177 19.14 14.177 19.573 L 14.177 19.573 L 14.177 19.573 Q 14.177 19.953 14.387 20.153 L 14.387 20.153 L 14.387 20.153 Q 14.596 20.352 15.167 20.487 L 15.167 20.487 L 15.574 20.579 L 15.574 20.579 Q 16.38 20.767 16.748 21.17 L 16.748 21.17 L 16.748 21.17 Q 17.117 21.573 17.117 22.267 L 17.117 22.267 L 17.117 22.267 Q 17.117 23.084 16.61 23.514 L 16.61 23.514 L 16.61 23.514 Q 16.104 23.944 15.137 23.944 L 15.137 23.944 L 15.137 23.944 Q 14.734 23.944 14.327 23.858 L 14.327 23.858 L 14.327 23.858 Q 13.92 23.771 13.51 23.599 L 13.51 23.599 L 13.51 22.774 L 13.51 22.774 Q 13.951 23.054 14.344 23.184 L 14.344 23.184 L 14.344 23.184 Q 14.738 23.315 15.137 23.315 L 15.137 23.315 L 15.137 23.315 Q 15.724 23.315 16.05 23.052 L 16.05 23.052 L 16.05 23.052 Q 16.376 22.789 16.376 22.317 L 16.376 22.317 L 16.376 22.317 Q 16.376 21.887 16.152 21.661 L 16.152 21.661 L 16.152 21.661 Q 15.927 21.434 15.371 21.312 L 15.371 21.312 L 14.956 21.216 L 14.956 21.216 Q 14.158 21.035 13.798 20.671 L 13.798 20.671 L 13.798 20.671 Q 13.437 20.306 13.437 19.692 L 13.437 19.692 L 13.437 19.692 Q 13.437 18.925 13.953 18.462 L 13.953 18.462 L 13.953 18.462 Q 14.469 18 15.325 18 L 15.325 18 L 15.325 18 Q 15.655 18 16.019 18.075 L 16.019 18.075 L 16.019 18.075 Q 16.384 18.15 16.787 18.299 Z  M 17.45 18.756 L 17.45 18.104 L 21.821 18.104 L 21.821 18.756 L 20.028 18.756 L 20.028 23.833 L 19.25 23.833 L 19.25 18.756 L 17.45 18.756 Z " fill="rgb(255,255,255)"/></g></svg>